<?xml version="1.0" encoding="UTF-8" standalone="no"?>
<!DOCTYPE svg PUBLIC "-//W3C//DTD SVG 1.1//EN"
 "http://www.w3.org/Graphics/SVG/1.1/DTD/svg11.dtd">
<!-- Generated by graphviz version 2.47.0 (20210316.0004)
 -->
<!-- Title: dependencies Pages: 1 -->
<svg width="949pt" height="284pt"
 viewBox="0.00 0.00 949.00 284.00" xmlns="http://www.w3.org/2000/svg" xmlns:xlink="http://www.w3.org/1999/xlink">
<g id="graph0" class="graph" transform="scale(1 1) rotate(0) translate(4 280)">
<title>dependencies</title>
<polygon fill="white" stroke="transparent" points="-4,4 -4,-280 945,-280 945,4 -4,4"/>
<text text-anchor="start" x="449.51" y="-42.4" font-family="sans-serif" font-weight="bold" font-size="14.00">Legend</text>
<polygon fill="#ffffb3" stroke="transparent" points="236.5,-10 236.5,-30 256.5,-30 256.5,-10 236.5,-10"/>
<text text-anchor="start" x="260.13" y="-15.4" font-family="sans-serif" font-size="14.00"> &#160;Declarations</text>
<polygon fill="#8dd3c7" stroke="transparent" points="349.5,-10 349.5,-30 369.5,-30 369.5,-10 349.5,-10"/>
<text text-anchor="start" x="373.23" y="-15.4" font-family="sans-serif" font-size="14.00"> &#160;Module</text>
<polygon fill="#80b1d3" stroke="transparent" points="435.5,-10 435.5,-30 455.5,-30 455.5,-10 435.5,-10"/>
<text text-anchor="start" x="459.28" y="-15.4" font-family="sans-serif" font-size="14.00"> &#160;Bootstrap</text>
<polygon fill="#fdb462" stroke="transparent" points="532.5,-10 532.5,-30 552.5,-30 552.5,-10 532.5,-10"/>
<text text-anchor="start" x="556.17" y="-15.4" font-family="sans-serif" font-size="14.00"> &#160;Providers</text>
<polygon fill="#fb8072" stroke="transparent" points="628.5,-10 628.5,-30 648.5,-30 648.5,-10 628.5,-10"/>
<text text-anchor="start" x="652.23" y="-15.4" font-family="sans-serif" font-size="14.00"> &#160;Exports</text>
<g id="clust1" class="cluster">
<title>cluster_SharedModule</title>
<polygon fill="none" stroke="black" stroke-dasharray="1,5" points="8,-70 8,-268 933,-268 933,-70 8,-70"/>
</g>
<g id="clust2" class="cluster">
<title>cluster_SharedModule_declarations</title>
<polygon fill="none" stroke="black" points="165,-78 165,-130 806,-130 806,-78 165,-78"/>
</g>
<g id="clust9" class="cluster">
<title>cluster_SharedModule_exports</title>
<polygon fill="none" stroke="black" points="16,-208 16,-260 925,-260 925,-208 16,-208"/>
</g>
<!-- BtnComponent -->
<g id="node1" class="node">
<title>BtnComponent</title>
<polygon fill="#ffffb3" stroke="black" points="797.56,-122 696.44,-122 696.44,-86 797.56,-86 797.56,-122"/>
<text text-anchor="middle" x="747" y="-99.8" font-family="Times,serif" font-size="14.00">BtnComponent</text>
</g>
<!-- SharedModule -->
<g id="node6" class="node">
<title>SharedModule</title>
<polygon fill="#8dd3c7" stroke="black" points="542.42,-187 539.42,-191 518.42,-191 515.42,-187 443.58,-187 443.58,-151 542.42,-151 542.42,-187"/>
<text text-anchor="middle" x="493" y="-164.8" font-family="Times,serif" font-size="14.00">SharedModule</text>
</g>
<!-- BtnComponent&#45;&gt;SharedModule -->
<g id="edge1" class="edge">
<title>BtnComponent&#45;&gt;SharedModule</title>
<path fill="none" stroke="black" d="M762.56,-122.02C762.56,-139.37 762.56,-163 762.56,-163 762.56,-163 552.44,-163 552.44,-163"/>
<polygon fill="black" stroke="black" points="552.44,-159.5 542.44,-163 552.44,-166.5 552.44,-159.5"/>
</g>
<!-- StateDirective -->
<g id="node2" class="node">
<title>StateDirective</title>
<polygon fill="#ffffb3" stroke="black" points="678.08,-122 581.92,-122 581.92,-86 678.08,-86 678.08,-122"/>
<text text-anchor="middle" x="630" y="-99.8" font-family="Times,serif" font-size="14.00">StateDirective</text>
</g>
<!-- StateDirective&#45;&gt;SharedModule -->
<g id="edge2" class="edge">
<title>StateDirective&#45;&gt;SharedModule</title>
<path fill="none" stroke="black" d="M646.43,-122.24C646.43,-137.57 646.43,-157 646.43,-157 646.43,-157 552.39,-157 552.39,-157"/>
<polygon fill="black" stroke="black" points="552.39,-153.5 542.39,-157 552.39,-160.5 552.39,-153.5"/>
</g>
<!-- TableDarkComponent -->
<g id="node3" class="node">
<title>TableDarkComponent</title>
<polygon fill="#ffffb3" stroke="black" points="563.69,-122 422.31,-122 422.31,-86 563.69,-86 563.69,-122"/>
<text text-anchor="middle" x="493" y="-99.8" font-family="Times,serif" font-size="14.00">TableDarkComponent</text>
</g>
<!-- TableDarkComponent&#45;&gt;SharedModule -->
<g id="edge3" class="edge">
<title>TableDarkComponent&#45;&gt;SharedModule</title>
<path fill="none" stroke="black" d="M493,-122.11C493,-122.11 493,-140.99 493,-140.99"/>
<polygon fill="black" stroke="black" points="489.5,-140.99 493,-150.99 496.5,-140.99 489.5,-140.99"/>
</g>
<!-- TableLightComponent -->
<g id="node4" class="node">
<title>TableLightComponent</title>
<polygon fill="#ffffb3" stroke="black" points="404.54,-122 261.46,-122 261.46,-86 404.54,-86 404.54,-122"/>
<text text-anchor="middle" x="333" y="-99.8" font-family="Times,serif" font-size="14.00">TableLightComponent</text>
</g>
<!-- TableLightComponent&#45;&gt;SharedModule -->
<g id="edge4" class="edge">
<title>TableLightComponent&#45;&gt;SharedModule</title>
<path fill="none" stroke="black" d="M355.42,-122.24C355.42,-137.57 355.42,-157 355.42,-157 355.42,-157 433.72,-157 433.72,-157"/>
<polygon fill="black" stroke="black" points="433.72,-160.5 443.72,-157 433.72,-153.5 433.72,-160.5"/>
</g>
<!-- TotalPipe -->
<g id="node5" class="node">
<title>TotalPipe</title>
<polygon fill="#ffffb3" stroke="black" points="243.44,-122 172.56,-122 172.56,-86 243.44,-86 243.44,-122"/>
<text text-anchor="middle" x="208" y="-99.8" font-family="Times,serif" font-size="14.00">TotalPipe</text>
</g>
<!-- TotalPipe&#45;&gt;SharedModule -->
<g id="edge5" class="edge">
<title>TotalPipe&#45;&gt;SharedModule</title>
<path fill="none" stroke="black" d="M216.05,-122.02C216.05,-139.37 216.05,-163 216.05,-163 216.05,-163 433.49,-163 433.49,-163"/>
<polygon fill="black" stroke="black" points="433.49,-166.5 443.49,-163 433.49,-159.5 433.49,-166.5"/>
</g>
<!-- BtnComponent  -->
<g id="node7" class="node">
<title>BtnComponent </title>
<polygon fill="#fb8072" stroke="black" points="916.56,-252 811.44,-252 811.44,-216 916.56,-216 916.56,-252"/>
<text text-anchor="middle" x="864" y="-229.8" font-family="Times,serif" font-size="14.00">BtnComponent </text>
</g>
<!-- SharedModule&#45;&gt;BtnComponent  -->
<g id="edge6" class="edge">
<title>SharedModule&#45;&gt;BtnComponent </title>
<path fill="none" stroke="black" stroke-dasharray="5,2" d="M542.27,-169C643.19,-169 864,-169 864,-169 864,-169 864,-205.89 864,-205.89"/>
<polygon fill="black" stroke="black" points="860.5,-205.89 864,-215.89 867.5,-205.89 860.5,-205.89"/>
</g>
<!-- IconsModule  -->
<g id="node8" class="node">
<title>IconsModule </title>
<polygon fill="#fb8072" stroke="black" points="793.87,-252 700.13,-252 700.13,-216 793.87,-216 793.87,-252"/>
<text text-anchor="middle" x="747" y="-229.8" font-family="Times,serif" font-size="14.00">IconsModule </text>
</g>
<!-- SharedModule&#45;&gt;IconsModule  -->
<g id="edge7" class="edge">
<title>SharedModule&#45;&gt;IconsModule </title>
<path fill="none" stroke="black" stroke-dasharray="5,2" d="M542.4,-175C612.24,-175 731.44,-175 731.44,-175 731.44,-175 731.44,-205.98 731.44,-205.98"/>
<polygon fill="black" stroke="black" points="727.94,-205.98 731.44,-215.98 734.94,-205.98 727.94,-205.98"/>
</g>
<!-- StateDirective  -->
<g id="node9" class="node">
<title>StateDirective </title>
<polygon fill="#fb8072" stroke="black" points="682.58,-252 583.42,-252 583.42,-216 682.58,-216 682.58,-252"/>
<text text-anchor="middle" x="633" y="-229.8" font-family="Times,serif" font-size="14.00">StateDirective </text>
</g>
<!-- SharedModule&#45;&gt;StateDirective  -->
<g id="edge8" class="edge">
<title>SharedModule&#45;&gt;StateDirective </title>
<path fill="none" stroke="black" stroke-dasharray="5,2" d="M542.55,-181C576.28,-181 614.82,-181 614.82,-181 614.82,-181 614.82,-205.76 614.82,-205.76"/>
<polygon fill="black" stroke="black" points="611.32,-205.76 614.82,-215.76 618.32,-205.76 611.32,-205.76"/>
</g>
<!-- TableDarkComponent  -->
<g id="node10" class="node">
<title>TableDarkComponent </title>
<polygon fill="#fb8072" stroke="black" points="565.19,-252 420.81,-252 420.81,-216 565.19,-216 565.19,-252"/>
<text text-anchor="middle" x="493" y="-229.8" font-family="Times,serif" font-size="14.00">TableDarkComponent </text>
</g>
<!-- SharedModule&#45;&gt;TableDarkComponent  -->
<g id="edge9" class="edge">
<title>SharedModule&#45;&gt;TableDarkComponent </title>
<path fill="none" stroke="black" stroke-dasharray="5,2" d="M493,-187.11C493,-187.11 493,-205.99 493,-205.99"/>
<polygon fill="black" stroke="black" points="489.5,-205.99 493,-215.99 496.5,-205.99 489.5,-205.99"/>
</g>
<!-- TableLightComponent  -->
<g id="node11" class="node">
<title>TableLightComponent </title>
<polygon fill="#fb8072" stroke="black" points="402.54,-252 255.46,-252 255.46,-216 402.54,-216 402.54,-252"/>
<text text-anchor="middle" x="329" y="-229.8" font-family="Times,serif" font-size="14.00">TableLightComponent </text>
</g>
<!-- SharedModule&#45;&gt;TableLightComponent  -->
<g id="edge10" class="edge">
<title>SharedModule&#45;&gt;TableLightComponent </title>
<path fill="none" stroke="black" stroke-dasharray="5,2" d="M443.51,-181C388.81,-181 308.33,-181 308.33,-181 308.33,-181 308.33,-205.76 308.33,-205.76"/>
<polygon fill="black" stroke="black" points="304.83,-205.76 308.33,-215.76 311.83,-205.76 304.83,-205.76"/>
</g>
<!-- TemplatesModule  -->
<g id="node12" class="node">
<title>TemplatesModule </title>
<polygon fill="#fb8072" stroke="black" points="237.86,-252 116.14,-252 116.14,-216 237.86,-216 237.86,-252"/>
<text text-anchor="middle" x="177" y="-229.8" font-family="Times,serif" font-size="14.00">TemplatesModule </text>
</g>
<!-- SharedModule&#45;&gt;TemplatesModule  -->
<g id="edge11" class="edge">
<title>SharedModule&#45;&gt;TemplatesModule </title>
<path fill="none" stroke="black" stroke-dasharray="5,2" d="M443.69,-175C358.89,-175 194.42,-175 194.42,-175 194.42,-175 194.42,-205.98 194.42,-205.98"/>
<polygon fill="black" stroke="black" points="190.92,-205.98 194.42,-215.98 197.92,-205.98 190.92,-205.98"/>
</g>
<!-- TotalPipe  -->
<g id="node13" class="node">
<title>TotalPipe </title>
<polygon fill="#fb8072" stroke="black" points="97.94,-252 24.06,-252 24.06,-216 97.94,-216 97.94,-252"/>
<text text-anchor="middle" x="61" y="-229.8" font-family="Times,serif" font-size="14.00">TotalPipe </text>
</g>
<!-- SharedModule&#45;&gt;TotalPipe  -->
<g id="edge12" class="edge">
<title>SharedModule&#45;&gt;TotalPipe </title>
<path fill="none" stroke="black" stroke-dasharray="5,2" d="M443.44,-169C329.97,-169 61,-169 61,-169 61,-169 61,-205.89 61,-205.89"/>
<polygon fill="black" stroke="black" points="57.5,-205.89 61,-215.89 64.5,-205.89 57.5,-205.89"/>
</g>
</g>
</svg>
